<mxfile host="app.diagrams.net" agent="Mozilla/5.0 (Macintosh; Intel Mac OS X 10_15_7) AppleWebKit/537.36 (KHTML, like Gecko) Chrome/131.0.0.0 Safari/537.36" version="26.0.1">
  <diagram id="C5RBs43oDa-KdzZeNtuy" name="Page-1">
    <mxGraphModel dx="2154" dy="2046" grid="1" gridSize="10" guides="1" tooltips="1" connect="1" arrows="1" fold="1" page="1" pageScale="1" pageWidth="827" pageHeight="1169" math="0" shadow="0">
      <root>
        <mxCell id="WIyWlLk6GJQsqaUBKTNV-0" />
        <mxCell id="WIyWlLk6GJQsqaUBKTNV-1" parent="WIyWlLk6GJQsqaUBKTNV-0" />
        <mxCell id="zkfFHV4jXpPFQw0GAbJ--0" value="Frontend (REACT: port 3001)" style="swimlane;fontStyle=2;align=center;verticalAlign=top;childLayout=stackLayout;horizontal=1;startSize=26;horizontalStack=0;resizeParent=1;resizeLast=0;collapsible=1;marginBottom=0;rounded=0;shadow=0;strokeWidth=1;" parent="WIyWlLk6GJQsqaUBKTNV-1" vertex="1">
          <mxGeometry x="60" y="80" width="480" height="210" as="geometry">
            <mxRectangle x="230" y="140" width="160" height="26" as="alternateBounds" />
          </mxGeometry>
        </mxCell>
        <mxCell id="zkfFHV4jXpPFQw0GAbJ--1" value="UserMessage (state)&#xa;tokensUsed (state)&#xa;gptReply(state)&#xa;&#xa;" style="text;align=left;verticalAlign=top;spacingLeft=4;spacingRight=4;overflow=hidden;rotatable=0;points=[[0,0.5],[1,0.5]];portConstraint=eastwest;" parent="zkfFHV4jXpPFQw0GAbJ--0" vertex="1">
          <mxGeometry y="26" width="480" height="74" as="geometry" />
        </mxCell>
        <mxCell id="zkfFHV4jXpPFQw0GAbJ--4" value="" style="line;html=1;strokeWidth=1;align=left;verticalAlign=middle;spacingTop=-1;spacingLeft=3;spacingRight=3;rotatable=0;labelPosition=right;points=[];portConstraint=eastwest;" parent="zkfFHV4jXpPFQw0GAbJ--0" vertex="1">
          <mxGeometry y="100" width="480" height="10" as="geometry" />
        </mxCell>
        <mxCell id="zkfFHV4jXpPFQw0GAbJ--5" value="- sendUserMessage(adress: str =&#39;http://127.0.0.1:3000/api/chatbot&#39;    &#xa;                                  message: obj {message: UserMessage))&#xa;- setUserMessage&#xa;- settokensUsed&#xa;- setgptReply" style="text;align=left;verticalAlign=top;spacingLeft=4;spacingRight=4;overflow=hidden;rotatable=0;points=[[0,0.5],[1,0.5]];portConstraint=eastwest;" parent="zkfFHV4jXpPFQw0GAbJ--0" vertex="1">
          <mxGeometry y="110" width="480" height="100" as="geometry" />
        </mxCell>
        <mxCell id="zkfFHV4jXpPFQw0GAbJ--17" value="Middle Server (NODE.JS: port 3000)" style="swimlane;fontStyle=0;align=center;verticalAlign=top;childLayout=stackLayout;horizontal=1;startSize=26;horizontalStack=0;resizeParent=1;resizeLast=0;collapsible=1;marginBottom=0;rounded=0;shadow=0;strokeWidth=1;" parent="WIyWlLk6GJQsqaUBKTNV-1" vertex="1">
          <mxGeometry x="790" y="70" width="520" height="300" as="geometry">
            <mxRectangle x="550" y="140" width="160" height="26" as="alternateBounds" />
          </mxGeometry>
        </mxCell>
        <mxCell id="zkfFHV4jXpPFQw0GAbJ--18" value="middleware:&#xa;app.use(express.json());&#xa;app.use(express.urlencoded()); //remember we need this for post request body&#xa;app.use(cors()); //this is for allowing cross origin" style="text;align=left;verticalAlign=top;spacingLeft=4;spacingRight=4;overflow=hidden;rotatable=0;points=[[0,0.5],[1,0.5]];portConstraint=eastwest;" parent="zkfFHV4jXpPFQw0GAbJ--17" vertex="1">
          <mxGeometry y="26" width="520" height="64" as="geometry" />
        </mxCell>
        <mxCell id="zkfFHV4jXpPFQw0GAbJ--23" value="" style="line;html=1;strokeWidth=1;align=left;verticalAlign=middle;spacingTop=-1;spacingLeft=3;spacingRight=3;rotatable=0;labelPosition=right;points=[];portConstraint=eastwest;" parent="zkfFHV4jXpPFQw0GAbJ--17" vertex="1">
          <mxGeometry y="90" width="520" height="8" as="geometry" />
        </mxCell>
        <mxCell id="zkfFHV4jXpPFQw0GAbJ--24" value="- app.post(&#39;/api/chatbot&#39;) handles post request from frontend and receives reply from gptAPI:&#xa;   args: userMessage: obj {message: str} sent from frontend, UserMessage&#xa;    returns: obj {chatBotreply: str, total_tokens: int)&#xa;&#xa;- app.get(&#39;/health&#39;): health check&#xa;    returns: status code and healthy server message&#xa;&#xa;- getLLMreply(userMessage: obj {message:str}):&#xa;    returns {&quot;message&quot;:  ChatCompletionMessage , &quot;total_tokens&quot;: int}&#xa;&#xa;&#xa;  &#xa;" style="text;align=left;verticalAlign=top;spacingLeft=4;spacingRight=4;overflow=hidden;rotatable=0;points=[[0,0.5],[1,0.5]];portConstraint=eastwest;" parent="zkfFHV4jXpPFQw0GAbJ--17" vertex="1">
          <mxGeometry y="98" width="520" height="172" as="geometry" />
        </mxCell>
        <mxCell id="zkfFHV4jXpPFQw0GAbJ--26" value="" style="endArrow=open;shadow=0;strokeWidth=1;rounded=0;curved=0;endFill=1;edgeStyle=elbowEdgeStyle;elbow=vertical;" parent="WIyWlLk6GJQsqaUBKTNV-1" source="zkfFHV4jXpPFQw0GAbJ--0" target="zkfFHV4jXpPFQw0GAbJ--17" edge="1">
          <mxGeometry x="0.5" y="41" relative="1" as="geometry">
            <mxPoint x="380" y="192" as="sourcePoint" />
            <mxPoint x="540" y="192" as="targetPoint" />
            <mxPoint x="-40" y="32" as="offset" />
          </mxGeometry>
        </mxCell>
        <mxCell id="zkfFHV4jXpPFQw0GAbJ--27" value="0..1" style="resizable=0;align=left;verticalAlign=bottom;labelBackgroundColor=none;fontSize=12;" parent="zkfFHV4jXpPFQw0GAbJ--26" connectable="0" vertex="1">
          <mxGeometry x="-1" relative="1" as="geometry">
            <mxPoint y="4" as="offset" />
          </mxGeometry>
        </mxCell>
        <mxCell id="zkfFHV4jXpPFQw0GAbJ--28" value="1" style="resizable=0;align=right;verticalAlign=bottom;labelBackgroundColor=none;fontSize=12;" parent="zkfFHV4jXpPFQw0GAbJ--26" connectable="0" vertex="1">
          <mxGeometry x="1" relative="1" as="geometry">
            <mxPoint x="-7" y="4" as="offset" />
          </mxGeometry>
        </mxCell>
        <mxCell id="Vb_wrgWzcp97lIyzkwiP-1" value="LLM Server (PYTHON YUUUCKS: port 5000)" style="swimlane;fontStyle=0;align=center;verticalAlign=top;childLayout=stackLayout;horizontal=1;startSize=26;horizontalStack=0;resizeParent=1;resizeLast=0;collapsible=1;marginBottom=0;rounded=0;shadow=0;strokeWidth=1;" parent="WIyWlLk6GJQsqaUBKTNV-1" vertex="1">
          <mxGeometry x="790" y="470" width="520" height="300" as="geometry">
            <mxRectangle x="550" y="140" width="160" height="26" as="alternateBounds" />
          </mxGeometry>
        </mxCell>
        <mxCell id="Vb_wrgWzcp97lIyzkwiP-2" value="api_key: str  (CHATGPT api key)" style="text;align=left;verticalAlign=top;spacingLeft=4;spacingRight=4;overflow=hidden;rotatable=0;points=[[0,0.5],[1,0.5]];portConstraint=eastwest;" parent="Vb_wrgWzcp97lIyzkwiP-1" vertex="1">
          <mxGeometry y="26" width="520" height="64" as="geometry" />
        </mxCell>
        <mxCell id="Vb_wrgWzcp97lIyzkwiP-3" value="" style="line;html=1;strokeWidth=1;align=left;verticalAlign=middle;spacingTop=-1;spacingLeft=3;spacingRight=3;rotatable=0;labelPosition=right;points=[];portConstraint=eastwest;" parent="Vb_wrgWzcp97lIyzkwiP-1" vertex="1">
          <mxGeometry y="90" width="520" height="8" as="geometry" />
        </mxCell>
        <mxCell id="Vb_wrgWzcp97lIyzkwiP-4" value="- @app.get(&quot;/health&quot;): HEALTH CHECK &lt;3&#xa;&#xa;- @app.post(&quot;/chatbot/generate&quot;):&#xa;    main endpoint for sending chat requests to GPT server&#xa;    args: userMessage: obj {message:str})&#xa;    returns: obj {&quot;message&quot;: ChatCompletionMessage, &quot;token_usage&quot;:int}    &#xa;&#xa;&#xa;&#xa;&#xa;&#xa;  &#xa;" style="text;align=left;verticalAlign=top;spacingLeft=4;spacingRight=4;overflow=hidden;rotatable=0;points=[[0,0.5],[1,0.5]];portConstraint=eastwest;" parent="Vb_wrgWzcp97lIyzkwiP-1" vertex="1">
          <mxGeometry y="98" width="520" height="172" as="geometry" />
        </mxCell>
        <mxCell id="Vb_wrgWzcp97lIyzkwiP-8" value="" style="endArrow=classic;html=1;rounded=0;entryX=0.5;entryY=1;entryDx=0;entryDy=0;exitX=0.5;exitY=0;exitDx=0;exitDy=0;" parent="WIyWlLk6GJQsqaUBKTNV-1" edge="1">
          <mxGeometry width="50" height="50" relative="1" as="geometry">
            <mxPoint x="1000" y="470" as="sourcePoint" />
            <mxPoint x="1000" y="370.0000000000002" as="targetPoint" />
            <Array as="points">
              <mxPoint x="1000" y="420" />
            </Array>
          </mxGeometry>
        </mxCell>
        <mxCell id="Vb_wrgWzcp97lIyzkwiP-9" value="Sends: userMessage" style="text;html=1;align=center;verticalAlign=middle;whiteSpace=wrap;rounded=0;" parent="WIyWlLk6GJQsqaUBKTNV-1" vertex="1">
          <mxGeometry x="1110" y="410" width="60" height="30" as="geometry" />
        </mxCell>
        <mxCell id="Vb_wrgWzcp97lIyzkwiP-12" value="Sends: userMessage" style="text;html=1;align=center;verticalAlign=middle;whiteSpace=wrap;rounded=0;" parent="WIyWlLk6GJQsqaUBKTNV-1" vertex="1">
          <mxGeometry x="630" y="140" width="60" height="30" as="geometry" />
        </mxCell>
        <mxCell id="Vb_wrgWzcp97lIyzkwiP-13" value="" style="endArrow=classic;html=1;rounded=0;entryX=0.558;entryY=0;entryDx=0;entryDy=0;entryPerimeter=0;" parent="WIyWlLk6GJQsqaUBKTNV-1" target="Vb_wrgWzcp97lIyzkwiP-1" edge="1">
          <mxGeometry width="50" height="50" relative="1" as="geometry">
            <mxPoint x="1080" y="370" as="sourcePoint" />
            <mxPoint x="1100" y="450" as="targetPoint" />
          </mxGeometry>
        </mxCell>
        <mxCell id="Vb_wrgWzcp97lIyzkwiP-19" value="" style="endArrow=classic;html=1;rounded=0;entryX=1.005;entryY=0.202;entryDx=0;entryDy=0;entryPerimeter=0;exitX=-0.006;exitY=0.245;exitDx=0;exitDy=0;exitPerimeter=0;" parent="WIyWlLk6GJQsqaUBKTNV-1" source="zkfFHV4jXpPFQw0GAbJ--24" target="zkfFHV4jXpPFQw0GAbJ--5" edge="1">
          <mxGeometry width="50" height="50" relative="1" as="geometry">
            <mxPoint x="780" y="210" as="sourcePoint" />
            <mxPoint x="730" y="350" as="targetPoint" />
          </mxGeometry>
        </mxCell>
        <mxCell id="Vb_wrgWzcp97lIyzkwiP-20" value="Sends: chatResponse&lt;div&gt;tokenUsage&lt;/div&gt;" style="text;html=1;align=center;verticalAlign=middle;whiteSpace=wrap;rounded=0;" parent="WIyWlLk6GJQsqaUBKTNV-1" vertex="1">
          <mxGeometry x="595" y="232" width="140" height="30" as="geometry" />
        </mxCell>
        <mxCell id="Vb_wrgWzcp97lIyzkwiP-21" value="Sends: chatResponse&lt;div&gt;tokenUsage&lt;/div&gt;" style="text;html=1;align=center;verticalAlign=middle;whiteSpace=wrap;rounded=0;" parent="WIyWlLk6GJQsqaUBKTNV-1" vertex="1">
          <mxGeometry x="830" y="410" width="140" height="30" as="geometry" />
        </mxCell>
        <mxCell id="Vb_wrgWzcp97lIyzkwiP-26" value="chatResponse" style="swimlane;fontStyle=2;align=center;verticalAlign=top;childLayout=stackLayout;horizontal=1;startSize=26;horizontalStack=0;resizeParent=1;resizeLast=0;collapsible=1;marginBottom=0;rounded=0;shadow=0;strokeWidth=1;" parent="WIyWlLk6GJQsqaUBKTNV-1" vertex="1">
          <mxGeometry x="50" y="470" width="340" height="150" as="geometry">
            <mxRectangle x="230" y="140" width="160" height="26" as="alternateBounds" />
          </mxGeometry>
        </mxCell>
        <mxCell id="Vb_wrgWzcp97lIyzkwiP-27" value="- content: str (the main message from chatgpt)&#xa;- refusal: Union[ Str, Null] (refusal message from llm)&#xa;- role: str (the author of this message)&#xa;- audio: obj or null (contains the audio response of the model)&#xa;- function_call: obj (depreciated)&#xa;-  tool_call: array (tool calls generated by model)&#xa;" style="text;align=left;verticalAlign=top;spacingLeft=4;spacingRight=4;overflow=hidden;rotatable=0;points=[[0,0.5],[1,0.5]];portConstraint=eastwest;" parent="Vb_wrgWzcp97lIyzkwiP-26" vertex="1">
          <mxGeometry y="26" width="340" height="104" as="geometry" />
        </mxCell>
        <mxCell id="Vb_wrgWzcp97lIyzkwiP-31" value="tokenUsage" style="swimlane;fontStyle=2;align=center;verticalAlign=top;childLayout=stackLayout;horizontal=1;startSize=26;horizontalStack=0;resizeParent=1;resizeLast=0;collapsible=1;marginBottom=0;rounded=0;shadow=0;strokeWidth=1;" parent="WIyWlLk6GJQsqaUBKTNV-1" vertex="1">
          <mxGeometry x="50" y="670" width="340" height="150" as="geometry">
            <mxRectangle x="230" y="140" width="160" height="26" as="alternateBounds" />
          </mxGeometry>
        </mxCell>
        <mxCell id="Vb_wrgWzcp97lIyzkwiP-32" value="- completion_tokens: int&#xa;- prompt_tokens: int &#xa;- total_tokens: int &#xa;- completion_tokens_details: Object &#xa;- prompt_tokens_details: Object" style="text;align=left;verticalAlign=top;spacingLeft=4;spacingRight=4;overflow=hidden;rotatable=0;points=[[0,0.5],[1,0.5]];portConstraint=eastwest;" parent="Vb_wrgWzcp97lIyzkwiP-31" vertex="1">
          <mxGeometry y="26" width="340" height="104" as="geometry" />
        </mxCell>
        <mxCell id="fBdvFAAga73wvy6smDbQ-0" value="AuthContext" style="swimlane;fontStyle=0;align=center;verticalAlign=top;childLayout=stackLayout;horizontal=1;startSize=26;horizontalStack=0;resizeParent=1;resizeLast=0;collapsible=1;marginBottom=0;rounded=0;shadow=0;strokeWidth=1;" vertex="1" parent="WIyWlLk6GJQsqaUBKTNV-1">
          <mxGeometry x="105" y="-300" width="390" height="290" as="geometry">
            <mxRectangle x="550" y="140" width="160" height="26" as="alternateBounds" />
          </mxGeometry>
        </mxCell>
        <mxCell id="fBdvFAAga73wvy6smDbQ-9" value="" style="endArrow=classic;html=1;rounded=0;" edge="1" parent="fBdvFAAga73wvy6smDbQ-0">
          <mxGeometry width="50" height="50" relative="1" as="geometry">
            <mxPoint x="195" as="sourcePoint" />
            <mxPoint x="195" y="-60" as="targetPoint" />
          </mxGeometry>
        </mxCell>
        <mxCell id="fBdvFAAga73wvy6smDbQ-1" value="authContext: useContext Hook&#xa;" style="text;align=left;verticalAlign=top;spacingLeft=4;spacingRight=4;overflow=hidden;rotatable=0;points=[[0,0.5],[1,0.5]];portConstraint=eastwest;" vertex="1" parent="fBdvFAAga73wvy6smDbQ-0">
          <mxGeometry y="26" width="390" height="64" as="geometry" />
        </mxCell>
        <mxCell id="fBdvFAAga73wvy6smDbQ-2" value="" style="line;html=1;strokeWidth=1;align=left;verticalAlign=middle;spacingTop=-1;spacingLeft=3;spacingRight=3;rotatable=0;labelPosition=right;points=[];portConstraint=eastwest;" vertex="1" parent="fBdvFAAga73wvy6smDbQ-0">
          <mxGeometry y="90" width="390" height="8" as="geometry" />
        </mxCell>
        <mxCell id="fBdvFAAga73wvy6smDbQ-3" value="- useAuth() : wrapper to get useContext(authContext)&#xa;- authProvider():  returns the components with the auth Context, containing&#xa;    user, login, and logout functions to all components inside this provider &#xa;    component&#xa;&#xa;" style="text;align=left;verticalAlign=top;spacingLeft=4;spacingRight=4;overflow=hidden;rotatable=0;points=[[0,0.5],[1,0.5]];portConstraint=eastwest;" vertex="1" parent="fBdvFAAga73wvy6smDbQ-0">
          <mxGeometry y="98" width="390" height="172" as="geometry" />
        </mxCell>
        <mxCell id="fBdvFAAga73wvy6smDbQ-4" value="AppRouter" style="swimlane;fontStyle=0;align=center;verticalAlign=top;childLayout=stackLayout;horizontal=1;startSize=26;horizontalStack=0;resizeParent=1;resizeLast=0;collapsible=1;marginBottom=0;rounded=0;shadow=0;strokeWidth=1;" vertex="1" parent="WIyWlLk6GJQsqaUBKTNV-1">
          <mxGeometry x="82.5" y="-570" width="435" height="210" as="geometry">
            <mxRectangle x="550" y="140" width="160" height="26" as="alternateBounds" />
          </mxGeometry>
        </mxCell>
        <mxCell id="fBdvFAAga73wvy6smDbQ-5" value="- user from authContext&#xa;Browser Router rounting to these routes:&#xa;- if user==null, then we route any endpoint to /login&#xa;- &#39;/&#39; just clicking on the link should bring us to the main page&#xa;- &#39;/chatbot&#39; for now should also bring us to the main chatbot page&#xa;" style="text;align=left;verticalAlign=top;spacingLeft=4;spacingRight=4;overflow=hidden;rotatable=0;points=[[0,0.5],[1,0.5]];portConstraint=eastwest;" vertex="1" parent="fBdvFAAga73wvy6smDbQ-4">
          <mxGeometry y="26" width="435" height="184" as="geometry" />
        </mxCell>
        <mxCell id="fBdvFAAga73wvy6smDbQ-8" value="" style="endArrow=classic;html=1;rounded=0;entryX=0.5;entryY=1;entryDx=0;entryDy=0;exitX=0.5;exitY=0;exitDx=0;exitDy=0;" edge="1" parent="WIyWlLk6GJQsqaUBKTNV-1" source="zkfFHV4jXpPFQw0GAbJ--0" target="fBdvFAAga73wvy6smDbQ-0">
          <mxGeometry width="50" height="50" relative="1" as="geometry">
            <mxPoint x="550" y="-200" as="sourcePoint" />
            <mxPoint x="600" y="-250" as="targetPoint" />
          </mxGeometry>
        </mxCell>
        <mxCell id="fBdvFAAga73wvy6smDbQ-10" value="" style="endArrow=classic;html=1;rounded=0;entryX=0.5;entryY=1;entryDx=0;entryDy=0;" edge="1" parent="WIyWlLk6GJQsqaUBKTNV-1" target="fBdvFAAga73wvy6smDbQ-11">
          <mxGeometry width="50" height="50" relative="1" as="geometry">
            <mxPoint x="299.33" y="-570" as="sourcePoint" />
            <mxPoint x="170" y="-650" as="targetPoint" />
          </mxGeometry>
        </mxCell>
        <mxCell id="fBdvFAAga73wvy6smDbQ-11" value="login.js" style="swimlane;fontStyle=0;align=center;verticalAlign=top;childLayout=stackLayout;horizontal=1;startSize=26;horizontalStack=0;resizeParent=1;resizeLast=0;collapsible=1;marginBottom=0;rounded=0;shadow=0;strokeWidth=1;" vertex="1" parent="WIyWlLk6GJQsqaUBKTNV-1">
          <mxGeometry x="-220" y="-990" width="390" height="290" as="geometry">
            <mxRectangle x="550" y="140" width="160" height="26" as="alternateBounds" />
          </mxGeometry>
        </mxCell>
        <mxCell id="fBdvFAAga73wvy6smDbQ-12" value="" style="endArrow=classic;html=1;rounded=0;" edge="1" parent="fBdvFAAga73wvy6smDbQ-11">
          <mxGeometry width="50" height="50" relative="1" as="geometry">
            <mxPoint x="195" as="sourcePoint" />
            <mxPoint x="195" y="-60" as="targetPoint" />
          </mxGeometry>
        </mxCell>
        <mxCell id="fBdvFAAga73wvy6smDbQ-13" value="simple log in page:&#xa;&#xa;- username, setUsername: useState&#xa;- password, setPassword: usetState&#xa;- error, setError: useState&#xa;- login from useAuth " style="text;align=left;verticalAlign=top;spacingLeft=4;spacingRight=4;overflow=hidden;rotatable=0;points=[[0,0.5],[1,0.5]];portConstraint=eastwest;" vertex="1" parent="fBdvFAAga73wvy6smDbQ-11">
          <mxGeometry y="26" width="390" height="104" as="geometry" />
        </mxCell>
        <mxCell id="fBdvFAAga73wvy6smDbQ-14" value="" style="line;html=1;strokeWidth=1;align=left;verticalAlign=middle;spacingTop=-1;spacingLeft=3;spacingRight=3;rotatable=0;labelPosition=right;points=[];portConstraint=eastwest;" vertex="1" parent="fBdvFAAga73wvy6smDbQ-11">
          <mxGeometry y="130" width="390" height="8" as="geometry" />
        </mxCell>
        <mxCell id="fBdvFAAga73wvy6smDbQ-15" value="- LoginPage (exported) : returns login componenent, logic for &#xa;   setUsername, setPassword and setError is all here&#xa;&#xa;- handleSubmit (used in LoginPage): handle submit checks if all fields &#xa;  are filled, if yes, then we try login (userData)&#xa;&#xa;&#xa;" style="text;align=left;verticalAlign=top;spacingLeft=4;spacingRight=4;overflow=hidden;rotatable=0;points=[[0,0.5],[1,0.5]];portConstraint=eastwest;" vertex="1" parent="fBdvFAAga73wvy6smDbQ-11">
          <mxGeometry y="138" width="390" height="138" as="geometry" />
        </mxCell>
        <mxCell id="fBdvFAAga73wvy6smDbQ-16" value="chatBot.js" style="swimlane;fontStyle=0;align=center;verticalAlign=top;childLayout=stackLayout;horizontal=1;startSize=26;horizontalStack=0;resizeParent=1;resizeLast=0;collapsible=1;marginBottom=0;rounded=0;shadow=0;strokeWidth=1;" vertex="1" parent="WIyWlLk6GJQsqaUBKTNV-1">
          <mxGeometry x="430" y="-1000" width="390" height="290" as="geometry">
            <mxRectangle x="550" y="140" width="160" height="26" as="alternateBounds" />
          </mxGeometry>
        </mxCell>
        <mxCell id="fBdvFAAga73wvy6smDbQ-17" value="" style="endArrow=classic;html=1;rounded=0;" edge="1" parent="fBdvFAAga73wvy6smDbQ-16">
          <mxGeometry width="50" height="50" relative="1" as="geometry">
            <mxPoint x="195" as="sourcePoint" />
            <mxPoint x="195" y="-60" as="targetPoint" />
          </mxGeometry>
        </mxCell>
        <mxCell id="fBdvFAAga73wvy6smDbQ-18" value="simple placeholder chatbot page:&#xa;&#xa;- userMessage, setUserMessage: useState&#xa;- gptReply, setGptReply: useState&#xa;- tokensUsed, setTokensUsed: useState&#xa;- logout from useAuth " style="text;align=left;verticalAlign=top;spacingLeft=4;spacingRight=4;overflow=hidden;rotatable=0;points=[[0,0.5],[1,0.5]];portConstraint=eastwest;" vertex="1" parent="fBdvFAAga73wvy6smDbQ-16">
          <mxGeometry y="26" width="390" height="104" as="geometry" />
        </mxCell>
        <mxCell id="fBdvFAAga73wvy6smDbQ-19" value="" style="line;html=1;strokeWidth=1;align=left;verticalAlign=middle;spacingTop=-1;spacingLeft=3;spacingRight=3;rotatable=0;labelPosition=right;points=[];portConstraint=eastwest;" vertex="1" parent="fBdvFAAga73wvy6smDbQ-16">
          <mxGeometry y="130" width="390" height="8" as="geometry" />
        </mxCell>
        <mxCell id="fBdvFAAga73wvy6smDbQ-20" value="- ChatbotPage(): main chatbot page display logic, used to interact with &#xa;    openai API&#xa;- sendUserMessage(): sends a post request to our backend server, &#xa;    which will communicate with our llm server" style="text;align=left;verticalAlign=top;spacingLeft=4;spacingRight=4;overflow=hidden;rotatable=0;points=[[0,0.5],[1,0.5]];portConstraint=eastwest;" vertex="1" parent="fBdvFAAga73wvy6smDbQ-16">
          <mxGeometry y="138" width="390" height="138" as="geometry" />
        </mxCell>
        <mxCell id="fBdvFAAga73wvy6smDbQ-21" value="" style="endArrow=classic;html=1;rounded=0;entryX=0.5;entryY=1;entryDx=0;entryDy=0;exitX=0.5;exitY=0;exitDx=0;exitDy=0;" edge="1" parent="WIyWlLk6GJQsqaUBKTNV-1" source="fBdvFAAga73wvy6smDbQ-4" target="fBdvFAAga73wvy6smDbQ-16">
          <mxGeometry width="50" height="50" relative="1" as="geometry">
            <mxPoint x="735" y="-580" as="sourcePoint" />
            <mxPoint x="410.67" y="-710" as="targetPoint" />
          </mxGeometry>
        </mxCell>
      </root>
    </mxGraphModel>
  </diagram>
</mxfile>
